HIERARCHY
ROOT Hips
{
  OFFSET -205.778 102.478 59.1413
  CHANNELS 6 Xposition Yposition Zposition Zrotation Xrotation Yrotation
  JOINT ToSpine
  {
    OFFSET -0.0105055 1.38907 -7.13956
    CHANNELS 3 Zrotation Xrotation Yrotation
    JOINT Spine
    {
      OFFSET 0.0105055 10 1
      CHANNELS 3 Zrotation Xrotation Yrotation
      JOINT Spine1
      {
        OFFSET 0 12 1.60637
        CHANNELS 3 Zrotation Xrotation Yrotation
        JOINT Neck
        {
          OFFSET 0 27 2.26658
          CHANNELS 3 Zrotation Xrotation Yrotation
          JOINT Head
          {
            OFFSET 0 9 2.12705
            CHANNELS 3 Zrotation Xrotation Yrotation
            End Site
            {
              OFFSET 0 11 2
            }
          }
        }
        JOINT LeftShoulder
        {
          OFFSET 8 19.6109 2.86452
          CHANNELS 3 Zrotation Xrotation Yrotation
          JOINT LeftArm
          {
            OFFSET 12 1 0.681055
            CHANNELS 3 Zrotation Xrotation Yrotation
            JOINT LeftForeArm
            {
              OFFSET 19 0 -1.52608
              CHANNELS 3 Zrotation Xrotation Yrotation
              JOINT LeftHand
              {
                OFFSET 23 0 0
                CHANNELS 3 Zrotation Xrotation Yrotation
                End Site
                {
                  OFFSET 10 0 0
                }
              }
            }
          }
        }
        JOINT RightShoulder
        {
          OFFSET -8 19.6109 2.86452
          CHANNELS 3 Zrotation Xrotation Yrotation
          JOINT RightArm
          {
            OFFSET -12 1 0.681055
            CHANNELS 3 Zrotation Xrotation Yrotation
            JOINT RightForeArm
            {
              OFFSET -19 0 -1.52608
              CHANNELS 3 Zrotation Xrotation Yrotation
              JOINT RightHand
              {
                OFFSET -23 0 0
                CHANNELS 3 Zrotation Xrotation Yrotation
                End Site
                {
                  OFFSET -10 0 0
                }
              }
            }
          }
        }
      }
    }
  }
  JOINT LeftUpLeg
  {
    OFFSET 9 -7.17245 0
    CHANNELS 3 Zrotation Xrotation Yrotation
    JOINT LeftLeg
    {
      OFFSET 0 -44.1113 0
      CHANNELS 3 Zrotation Xrotation Yrotation
      JOINT LeftFoot
      {
        OFFSET 0 -36.1829 0
        CHANNELS 3 Zrotation Xrotation Yrotation
        JOINT LeftToeBase
        {
          OFFSET 0 -4.84184 13
          CHANNELS 3 Zrotation Xrotation Yrotation
          End Site
          {
            OFFSET 0 1 6
          }
        }
      }
    }
  }
  JOINT RightUpLeg
  {
    OFFSET -9 -7.17245 0
    CHANNELS 3 Zrotation Xrotation Yrotation
    JOINT RightLeg
    {
      OFFSET 0 -44.0551 0
      CHANNELS 3 Zrotation Xrotation Yrotation
      JOINT RightFoot
      {
        OFFSET 0 -36.1469 0
        CHANNELS 3 Zrotation Xrotation Yrotation
        JOINT RightToeBase
        {
          OFFSET 0 -4.92256 13
          CHANNELS 3 Zrotation Xrotation Yrotation
          End Site
          {
            OFFSET 0 1 6
          }
        }
      }
    }
  }
}
MOTION
Frames:	12
Frame Time:	0.0333333
-205.805 102.478 59.1719 4.5206 2.17112 91.203 0 0 0 -4.28458 -4.20435 -0.0734564 3.23266 14.6786 -0.767575 2.68938 -17.9226 0.0927702 -1.66192 6.7682 0.92186 -31.8529 6.61603 -13.8396 -40.7393 33.8289 0.517758 -10.5805 -17.1524 -19.9594 7.04933 0.038945 0.635531 27.5109 5.65516 13.2097 45.8222 19.198 2.90551 7.45208 -6.15719 15.1934 -2.57036 -0.0696838 3.08232 -0.594337 6.93559 6.66039 -0.790204 3.77134 -11.1057 -1.10074 -5.64539 -0.0544304 -1.66466 0.287605 3.84836 -2.91448 7.67456 -8.16704 0.484929 4.19365 9.08099 -1.25617 -7.39844 -0.0811068 0.39827 1.62564 -0.709601 
-205.723 102.471 59.1115 4.45531 2.07621 91.1952 0 0 0 -4.12583 -4.32091 -0.0829287 3.12869 14.7217 -0.745742 2.883 -17.9133 0.048553 -1.82877 6.97243 0.957853 -31.6577 6.6141 -13.9229 -40.8202 33.0655 0.482681 -10.6541 -16.7418 -19.4999 6.87735 0.00862956 0.135821 27.632 5.70384 13.2933 45.8172 19.0406 2.7529 7.36703 -6.03595 15.2292 -2.51988 -0.0696824 3.10414 -0.496181 6.8572 6.71669 -0.875915 3.92529 -11.0188 -0.932408 -5.87393 -0.0477282 -1.55093 0.324901 3.59792 -2.83474 7.61678 -8.1124 0.407396 4.29596 8.77271 -1.46677 -7.5652 -0.0972901 0.219424 1.61396 -0.220389 
-205.576 102.445 59.0161 4.46912 2.0237 91.1131 0 0 0 -4.12485 -4.32094 -0.0844647 3.13253 14.7593 -0.737501 3.39397 -18.1023 -0.0657493 -2.33321 7.44085 1.067 -31.1726 6.46854 -13.7618 -41.118 32.6848 0.232193 -10.3107 -15.3193 -19.0709 6.85424 0.0191305 0.307472 27.7619 5.7645 13.4078 45.7885 18.8058 2.6505 7.33783 -5.92214 15.1515 -2.53448 -0.0696831 3.09323 -0.475853 6.92267 6.75565 -0.966222 4.08507 -10.8451 -0.643109 -6.03428 -0.0339708 -1.54869 0.290111 3.58526 -2.87525 7.68679 -8.17725 0.429649 4.42639 8.9288 -1.38025 -7.89221 -0.0946199 0.204747 2.13391 -0.0621243 
-205.414 102.414 58.9112 4.40882 2.13978 90.9655 0 0 0 -4.21455 -4.44195 -0.0677001 3.13894 14.8005 -0.707312 3.24356 -18.1036 -0.0421086 -2.03137 7.43349 0.982551 -31.1056 6.44702 -13.7358 -41.1598 32.8365 0.20299 -10.1605 -14.7417 -18.9591 7.22165 0.0404341 0.645451 27.7345 5.8075 13.5454 45.8461 18.5508 2.40477 7.24076 -5.81242 15.1939 -2.43965 -0.0696778 3.17303 -0.661408 6.87927 6.71285 -1.03334 4.37182 -10.7402 -0.499314 -6.22762 -0.0270567 -1.65753 -0.0279691 3.76629 -3.16617 7.71054 -8.37015 0.522642 4.45729 9.52438 -0.896546 -8.10558 -0.0637812 0.359161 2.30576 -0.435692 
-205.233 102.385 58.8 4.36973 2.16365 90.8594 0 0 0 -4.25356 -4.52469 -0.0932077 3.19148 14.9004 -0.737142 3.27939 -18.5009 0.056996 -1.94133 7.91853 1.04964 -31.1046 6.45726 -13.7633 -41.143 32.7023 0.320332 -10.1613 -14.8127 -18.9822 7.01296 0.03506 0.576796 28.088 5.92899 13.7249 45.4251 18.7672 2.09755 7.11761 -5.88033 15.4709 -2.36139 -0.0696656 3.34968 -0.689268 6.82137 6.76297 -1.17969 4.75761 -10.6423 -0.446542 -6.78459 -0.0266768 -1.59262 0.259891 3.6781 -3.34163 7.71352 -8.49941 0.566164 4.62872 9.78656 -0.660853 -8.30236 -0.0479312 0.367284 1.99188 -0.534437 
-205.024 102.332 58.6506 4.37893 2.13278 90.6654 0 0 0 -4.14579 -4.27364 0.0477133 3.17341 14.5629 -0.58076 3.50874 -18.659 -0.116821 -2.40317 8.08386 1.05045 -31.1199 6.50432 -13.88 -41.2964 32.8403 0.569084 -10.0834 -14.8589 -19.1249 6.76999 0.038457 0.649173 28.1171 5.81749 13.3881 45.3553 19.5581 2.0978 7.3097 -6.48831 15.6545 -2.6756 -0.0696801 3.13933 -0.658272 6.82964 6.8608 -1.33181 5.26752 -10.5948 -0.573937 -7.78607 -0.039397 -1.56355 1.0644 3.78141 -3.53667 7.69804 -8.65336 0.63533 5.04719 10.3937 -0.24145 -8.80639 -0.0179853 0.455317 2.44472 -0.663755 
-204.819 102.296 58.5052 4.25995 2.09821 90.5576 0 0 0 -4.03701 -4.3627 0.0700259 3.28687 14.5493 -0.571505 3.07128 -18.7792 -0.0901175 -2.05236 7.93216 0.910844 -31.2338 6.52838 -13.8918 -41.4072 32.5917 0.511787 -10.288 -15.3654 -19.1318 6.95014 0.0181568 0.300865 27.6709 5.68608 13.2248 45.544 19.5642 2.46367 7.43242 -6.2698 15.3758 -2.66603 -0.0696857 3.05369 -0.675434 6.58099 6.8309 -1.41893 6.03372 -10.4993 -0.227357 -8.57602 -0.0165351 -1.60375 0.959009 3.85002 -3.68613 7.50343 -8.77774 0.606734 5.60925 10.2463 -0.442894 -9.65379 -0.0401833 0.338624 3.42988 -0.112566 
-204.573 102.215 58.3241 4.17443 2.07792 90.3633 0 0 0 -3.83283 -4.3626 0.0349605 3.09275 14.5447 -0.526783 3.26039 -19.2095 0.0514429 -1.92753 8.23662 1.02174 -30.9469 6.4219 -13.7417 -41.6014 32.1423 0.208826 -10.4803 -15.4208 -18.8486 6.98982 0.0115891 0.190076 27.8862 5.80071 13.4528 45.2612 19.3435 2.41564 7.3164 -5.76822 15.2718 -2.46493 -0.0648751 3.02936 -0.744655 6.17129 6.69255 -1.45571 7.17705 -10.1918 0.0592255 -9.32121 0.00397844 -1.74624 0.419118 4.05979 -3.91125 7.28565 -8.93893 0.570342 6.28743 10.6523 0.384034 -10.6681 0.0389583 0.482567 4.46186 -0.270522 
-204.271 102.085 58.138 4.20002 2.03505 89.9989 0 0 0 -3.53317 -4.04012 0.161406 2.80107 14.1819 -0.304549 3.54932 -19.3976 0.0319647 -2.12911 8.30896 1.09497 -30.9065 6.41505 -13.7419 -41.672 31.9696 0.218817 -10.5064 -15.28 -18.6939 6.90096 0.011088 0.183379 28.2281 5.91006 13.6033 44.9508 19.541 1.95917 7.42789 -6.36077 15.4158 -2.65991 -0.0779026 3.32786 -0.753401 5.9925 6.71259 -1.6211 8.24339 -9.87638 0.421951 -10.1067 0.0380334 -1.83426 -0.304342 4.11606 -4.15706 7.18728 -9.0513 0.519208 6.92644 11.6584 1.71021 -11.4405 0.168934 0.871333 4.01321 -1.37813 
-203.891 102.006 57.9457 4.31856 2.03131 89.8232 0 0 0 -3.53472 -3.88574 0.144721 2.81704 14.2612 -0.316209 3.81666 -19.6856 0.119098 -2.28749 8.1041 1.24013 -30.8225 6.40153 -13.7443 -41.9181 31.8925 0.406737 -10.6105 -15.9976 -18.9537 6.86168 -0.00947234 -0.158778 28.3378 5.99893 13.8037 44.4493 19.2357 2.05888 7.6478 -6.36498 14.9943 -2.73281 -0.0911553 3.82436 -0.815044 6.14823 6.75689 -1.73863 8.93533 -10.0399 0.780306 -10.5385 0.0709456 -2.06336 -1.34321 4.42374 -4.39696 7.37284 -9.15866 0.393577 7.53491 12.0547 2.4559 -12.9617 0.283289 0.754936 4.66133 -0.907031 
-203.447 101.885 57.6774 4.43559 2.03323 89.5656 0 0 0 -3.3704 -3.51399 0.173815 2.60618 14.0981 -0.231989 4.13763 -20.0928 0.204517 -2.42658 8.25477 1.38691 -30.8553 6.41341 -13.7608 -41.9257 32.1163 0.758446 -10.3564 -15.8213 -19.2342 6.77756 0.00522675 0.0917857 28.4722 6.07955 13.9684 43.9095 18.8274 2.01945 7.62408 -5.67146 14.6179 -2.47513 -0.0854331 3.95577 -1.05331 6.26452 6.60729 -1.65274 9.76278 -9.96436 1.21284 -11.3609 0.122637 -2.30459 -2.00077 4.86154 -4.73655 7.58228 -9.36379 0.493956 8.06487 12.9937 2.34589 -13.6998 0.281964 0.799159 4.47599 -1.05492 
-202.938 101.755 57.4097 4.73467 1.84134 89.1738 0 0 0 -2.79768 -2.85221 0.292744 2.15828 13.7958 -0.0103698 4.28015 -20.2426 0.299508 -2.19946 8.28164 1.41971 -31.2016 6.4889 -13.8028 -41.3969 32.2676 1.10089 -10.348 -16.0664 -19.4038 6.62875 0.0188261 0.329457 28.8739 6.32929 14.4725 42.9595 18.554 1.32148 7.73574 -6.02499 14.546 -2.19592 -0.078382 4.02674 -1.13678 6.74055 6.62123 -1.63507 10.4768 -9.59985 1.65381 -12.6074 0.181 -2.33238 -1.85555 4.95606 -4.88522 7.98378 -9.46079 0.439764 8.58825 13.4946 2.1977 -14.2683 0.278344 1.18537 4.18873 -2.16274 
